<?xml version="1.0" encoding="utf-8"?>
<!-- Generator: Adobe Illustrator 27.7.0, SVG Export Plug-In . SVG Version: 6.00 Build 0)  -->
<svg version="1.1" id="Layer_1" xmlns="http://www.w3.org/2000/svg" xmlns:xlink="http://www.w3.org/1999/xlink" x="0px" y="0px"
	 viewBox="0 0 604 400" style="enable-background:new 0 0 604 400;" xml:space="preserve">
<style type="text/css">
	.st0{clip-path:url(#SVGID_00000017491480430265368740000017637214747238159258_);fill:#C3006B;}
	.st1{clip-path:url(#SVGID_00000055687443545234268000000010124030850424785297_);}
	.st2{clip-path:url(#SVGID_00000017512372742322865080000017193987072044115619_);fill:#FFFFFF;}
	.st3{clip-path:url(#SVGID_00000017512372742322865080000017193987072044115619_);}
	.st4{clip-path:url(#SVGID_00000095318559958712868070000013584601222051875472_);fill:#FFDD00;}
	
		.st5{clip-path:url(#SVGID_00000095318559958712868070000013584601222051875472_);stroke:#000000;stroke-width:0.75;stroke-miterlimit:10;}
	.st6{clip-path:url(#SVGID_00000095318559958712868070000013584601222051875472_);}
</style>
<g>
	<g>
		<defs>
			
				<rect id="SVGID_1_" x="111.1" y="-103.3" transform="matrix(1.138992e-03 -1 1 1.138992e-03 99.1646 488.2771)" width="365.8" height="595.7"/>
		</defs>
		<clipPath id="SVGID_00000028303031874779303610000007582132093777219775_">
			<use xlink:href="#SVGID_1_"  style="overflow:visible;"/>
		</clipPath>
		<path style="clip-path:url(#SVGID_00000028303031874779303610000007582132093777219775_);fill:#C3006B;" d="M31,55.1
			C10.1,56.9-5.4,75.2-3.6,96.1l21.3,246.3c1.8,20.9,20.2,36.3,41.1,34.5l498.3-43c20.9-1.8,36.3-20.2,34.5-41.1L570.3,46.6
			c-1.8-20.9-20.2-36.3-41.1-34.5L31,55.1z"/>
	</g>
	<g>
		<g>
			<defs>
				
					<rect id="SVGID_00000022536929314085505590000002899504753023620482_" x="63.3" y="92.8" transform="matrix(0.9963 -8.602103e-02 8.602103e-02 0.9963 -15.6413 26.011)" width="461.4" height="203.4"/>
			</defs>
			<clipPath id="SVGID_00000016059270248528250970000006882427488626564274_">
				<use xlink:href="#SVGID_00000022536929314085505590000002899504753023620482_"  style="overflow:visible;"/>
			</clipPath>
			<g style="clip-path:url(#SVGID_00000016059270248528250970000006882427488626564274_);">
				<defs>
					
						<rect id="SVGID_00000116952525576239923910000016404423278283258789_" x="63.3" y="92.8" transform="matrix(0.9963 -8.602103e-02 8.602103e-02 0.9963 -15.6413 26.011)" width="461.4" height="203.4"/>
				</defs>
				<clipPath id="SVGID_00000172427517424614135000000017929317489130827441_">
					<use xlink:href="#SVGID_00000116952525576239923910000016404423278283258789_"  style="overflow:visible;"/>
				</clipPath>
				<path style="clip-path:url(#SVGID_00000172427517424614135000000017929317489130827441_);fill:#FFFFFF;" d="M95,151.7l11.8-1
					l0.6,6.8c1.5-4.8,4.4-8,10-8.2l1.1,12.4l-1,0.1c-6.1,0.5-9.3,4.4-8.7,12.1l0.9,10.4l-11.8,1L95,151.7z"/>
				<path style="clip-path:url(#SVGID_00000172427517424614135000000017929317489130827441_);fill:#FFFFFF;" d="M167.2,175.2
					l0.4,4.1l-11.8,1l-3.9-45.3l11.8-1l1.4,16.2c2.1-3,4.7-5.7,9.7-6.1c8-0.7,15.5,5.3,16.4,16.1l0,0.1c0.9,10.9-5.4,18.2-13.3,18.9
					C172.7,179.6,169.6,177.5,167.2,175.2 M179.5,161.3l0-0.1c-0.4-4.4-3.7-7.3-7.5-7c-3.8,0.3-6.6,3.8-6.2,8.1l0,0.1
					c0.4,4.5,3.7,7.4,7.5,7C177.2,169.2,179.9,165.9,179.5,161.3"/>
				
					<rect x="226.8" y="128.1" transform="matrix(0.9963 -8.602103e-02 8.602103e-02 0.9963 -12.1094 20.5794)" style="clip-path:url(#SVGID_00000172427517424614135000000017929317489130827441_);fill:#FFFFFF;" width="11.8" height="45.5"/>
				<path style="clip-path:url(#SVGID_00000172427517424614135000000017929317489130827441_);fill:#FFFFFF;" d="M153,164.4
					c-0.9-9.9-6.9-17.9-18.5-16.9c-9.9,0.9-16.3,9.2-15.4,19l0,0.1c0.9,10.4,8.9,16.8,19.5,15.9c6.7-0.6,11.1-3.7,14-8.1l-7-4.8
					c-2.2,2.6-4.4,3.8-7.1,4.1c-3.7,0.3-6.5-1.3-7.7-4.9l22.5-1.9C153.2,166.1,153.1,165.2,153,164.4 M135.3,156.2
					c3-0.3,5.3,1.6,6.2,4.9l-11.4,1C130.6,158.8,132.4,156.5,135.3,156.2"/>
				<path style="clip-path:url(#SVGID_00000172427517424614135000000017929317489130827441_);fill:#FFFFFF;" d="M207.6,141.2
					c-11.6,1-16.2,10-15.4,19.8c0.1,0.7,0.1,1.6,0.3,2.4l22.5-1.9c-0.6,3.7-3.1,5.8-6.8,6.1c-2.8,0.2-5.1-0.6-7.7-2.8l-6,6
					c3.6,3.8,8.5,6.1,15.2,5.6c10.6-0.9,17.4-8.6,16.5-19l0-0.1C225.2,147.5,217.5,140.4,207.6,141.2 M208.3,149.9
					c2.9-0.3,5.1,1.7,6.2,4.9l-11.4,1C203.3,152.4,205.3,150.2,208.3,149.9"/>
				<path style="clip-path:url(#SVGID_00000172427517424614135000000017929317489130827441_);" d="M148.7,265.4
					c-2.9,3.6-5.9,6.2-9,7.8c-3.1,1.6-7,2.6-11.8,3c-2.3,0.2-4.7,0.1-7.4-0.3c-2.6-0.4-5.1-1.3-7.4-2.7c-2.3-1.4-4.3-3.4-5.9-6
					c-1.6-2.6-2.6-6-3-10.1c-0.4-4.2,0.2-7.9,1.7-11.3c1.5-3.4,3.7-6.2,6.6-8.6c2.9-2.4,6.3-4.3,10.3-5.7c4-1.4,8.2-2.3,12.6-2.7
					c2.3-0.2,4.1-0.3,5.4-0.3c1.3,0,2.9,0,4.6,0.1l-0.1-1.3c-0.2-1.8-0.7-3.2-1.5-4.3c-0.8-1.1-1.9-1.9-3.1-2.4
					c-1.2-0.5-2.5-0.9-3.8-1c-1.4-0.1-2.7-0.1-4,0c-4.5,0.4-8.3,1.3-11.6,2.7c-3.3,1.4-5.9,3-7.8,4.6L102.9,213
					c2.8-2.6,6.7-5.2,11.9-7.6c5.2-2.4,11.9-4,20.2-4.7c4.8-0.4,9.3-0.2,13.4,0.7c4.1,0.9,7.6,2.5,10.7,4.8c3.1,2.3,5.6,5.2,7.5,8.8
					c1.9,3.6,3.1,7.8,3.5,12.8l3.6,42.2l-23.6,2L148.7,265.4z M146.6,241.8c-1.7-0.2-4-0.3-6.9,0c-4.2,0.4-7.2,1.4-9,3.2
					c-1.8,1.8-2.7,3.8-2.5,6.1c0.4,5.1,3.4,7.5,9,7c1.3-0.1,2.6-0.4,3.8-0.9c1.3-0.5,2.3-1.1,3.3-2.1c0.9-0.9,1.6-2.1,2.2-3.6
					c0.5-1.4,0.7-3.2,0.5-5.3L146.6,241.8z"/>
				<path style="clip-path:url(#SVGID_00000172427517424614135000000017929317489130827441_);" d="M246.4,254.3
					c-1.2,1.6-2.6,3.2-4.4,4.7c-1.8,1.5-3.8,3-6.1,4.3c-2.3,1.3-5,2.4-7.9,3.3c-2.9,0.9-6.1,1.5-9.6,1.8c-5.2,0.5-10.2,0-15-1.4
					c-4.8-1.4-9-3.6-12.7-6.5c-3.7-3-6.7-6.7-9-11.1c-2.3-4.4-3.7-9.5-4.2-15.1c-0.5-5.2,0.1-10.2,1.6-14.9c1.5-4.7,3.9-8.8,7-12.5
					c3.1-3.7,6.9-6.6,11.3-8.9c4.4-2.3,9.3-3.6,14.5-4.1c6.9-0.6,12.8,0,17.7,1.8c4.9,1.8,9,4.2,12.2,7.3l-13.2,18
					c-1.2-1.2-2.9-2.4-5-3.8c-2.1-1.3-5.1-1.8-9.1-1.5c-3.5,0.3-6.4,1.9-8.8,4.9c-2.4,3-3.5,6.8-3.1,11.4c0.2,2.3,0.7,4.3,1.7,6.2
					c0.9,1.9,2,3.4,3.3,4.6c1.3,1.2,2.8,2.2,4.4,2.8c1.6,0.6,3.4,0.8,5.1,0.7c1.9-0.2,3.5-0.5,5-1.1c1.4-0.6,2.7-1.3,3.7-2
					c1-0.8,1.9-1.6,2.6-2.4c0.7-0.8,1.2-1.5,1.7-2L246.4,254.3z"/>
				<path style="clip-path:url(#SVGID_00000172427517424614135000000017929317489130827441_);" d="M253.1,212.2l-10.2,0.9l-1.7-19.3
					l10.2-0.9l-1.7-19.4l25.1-2.2l1.7,19.4l17.2-1.5l1.7,19.3l-17.2,1.5l2.1,24.6c0.5,5.7,3.5,8.4,8.9,7.9c1.6-0.1,3.1-0.6,4.6-1.4
					c1.5-0.8,2.8-1.7,4-2.7l11.1,14.6c-3,2.7-6.3,5-10,6.7c-3.7,1.7-7.6,2.8-11.7,3.1c-5.6,0.5-10.4,0.1-14.4-1.2
					c-3.9-1.3-7.2-3.2-9.7-5.8c-2.5-2.6-4.4-5.9-5.7-9.7c-1.3-3.9-2.1-8.1-2.5-12.8L253.1,212.2z"/>
				<path style="clip-path:url(#SVGID_00000172427517424614135000000017929317489130827441_);" d="M303.8,158.9l27.2-2.3l1.7,19.7
					l-27.2,2.3L303.8,158.9z M307.3,188l25.1-2.2l6,69.8l-25.1,2.2L307.3,188z"/>
				<polygon style="clip-path:url(#SVGID_00000172427517424614135000000017929317489130827441_);" points="336.4,185.5 363.7,183.2 
					381.6,223.6 391.2,180.8 418.5,178.4 394.3,250.8 371.8,252.7 				"/>
				<path style="clip-path:url(#SVGID_00000172427517424614135000000017929317489130827441_);" d="M493.6,237.1
					c-1.1,0.8-2.6,1.7-4.3,2.7c-1.8,1-3.8,2-6.3,2.9c-2.4,1-5.1,1.8-8.1,2.6c-3,0.8-6.3,1.4-9.7,1.7c-12.9,1.1-23-1.3-30.4-7.2
					c-7.4-5.9-11.6-14.7-12.6-26.4c-0.4-4.7-0.1-9.3,1-13.9c1.1-4.6,3-8.8,5.7-12.6c2.7-3.8,6.3-6.9,10.7-9.5
					c4.4-2.6,9.7-4.1,15.8-4.7c4.7-0.4,9.3,0,13.6,1.3c4.3,1.3,8.2,3.4,11.6,6.5c3.4,3,6.2,7,8.4,11.8c2.2,4.8,3.6,10.6,4.2,17.4
					l0.4,4.7l-47.2,4.1c0.2,1.2,0.6,2.4,1.3,3.6c0.7,1.2,1.7,2.4,3.1,3.4c1.4,1,3.3,1.8,5.6,2.3c2.3,0.5,5.1,0.6,8.3,0.3
					c4.3-0.4,8.1-1.2,11.5-2.6c3.4-1.4,6.1-2.8,7.9-4.1L493.6,237.1z M470.2,201.6c-0.1-1.2-0.5-2.4-1.1-3.6
					c-0.6-1.2-1.5-2.4-2.6-3.4c-1.1-1-2.5-1.8-4.1-2.4c-1.6-0.6-3.5-0.8-5.7-0.6c-2.1,0.2-3.9,0.7-5.4,1.6c-1.5,0.9-2.7,1.9-3.6,3.1
					c-0.9,1.2-1.5,2.4-1.9,3.8c-0.4,1.3-0.5,2.6-0.4,3.8L470.2,201.6z"/>
			</g>
			<g style="clip-path:url(#SVGID_00000016059270248528250970000006882427488626564274_);">
				<defs>
					
						<rect id="SVGID_00000043420404504580635660000017994322439203502498_" x="63.3" y="92.8" transform="matrix(0.9963 -8.602103e-02 8.602103e-02 0.9963 -15.6413 26.011)" width="461.4" height="203.4"/>
				</defs>
				<clipPath id="SVGID_00000045618963292164403280000011131897611413468834_">
					<use xlink:href="#SVGID_00000043420404504580635660000017994322439203502498_"  style="overflow:visible;"/>
				</clipPath>
				<path style="clip-path:url(#SVGID_00000045618963292164403280000011131897611413468834_);fill:#FFDD00;" d="M465.1,139.5
					c5.3,19.8-6.5,40.1-26.3,45.4c-19.8,5.3-40.1-6.5-45.4-26.3c-5.3-19.8,6.5-40.1,26.3-45.4C439.5,107.9,459.9,119.7,465.1,139.5"
					/>
				
					<path style="clip-path:url(#SVGID_00000045618963292164403280000011131897611413468834_);stroke:#000000;stroke-width:0.75;stroke-miterlimit:10;" d="
					M435,181.7c-18.1,3.2-35.4-9-38.6-27.1c-3.2-18.1,9-35.4,27.1-38.6c18.1-3.2,35.4,9,38.6,27.1
					C465.3,161.2,453.2,178.6,435,181.7 M424.1,119.4c-16.2,2.8-27.1,18.4-24.3,34.6c2.8,16.2,18.4,27.1,34.6,24.3
					s27.1-18.4,24.3-34.6C455.9,127.5,440.4,116.6,424.1,119.4"/>
				<path style="clip-path:url(#SVGID_00000045618963292164403280000011131897611413468834_);" d="M433.9,171.3
					c-11.9,2.1-19.4-6.5-21.7-11.3l4-1.9c0.2,0.4,5.3,10.9,16.9,8.9c11.5-2,12-13.3,12-13.8l4.4,0.1
					C449.4,158.6,445.9,169.2,433.9,171.3"/>
				<path style="clip-path:url(#SVGID_00000045618963292164403280000011131897611413468834_);" d="M412,134.9l5.8-1l0.6,3.3
					c0.6-2.4,1.8-4.2,4.6-4.5l1.1,6.1l-0.5,0.1c-3,0.5-4.4,2.6-3.8,6.4l0.9,5.1l-5.8,1L412,134.9z"/>
				<path style="clip-path:url(#SVGID_00000045618963292164403280000011131897611413468834_);" d="M429.9,131.8l5.8-1l0.6,3.3
					c0.6-2.4,1.8-4.2,4.6-4.5l1.1,6.1l-0.5,0.1c-3,0.5-4.4,2.6-3.8,6.4l0.9,5.1l-5.8,1L429.9,131.8z"/>
			</g>
		</g>
	</g>
</g>
</svg>
