<?xml version="1.0" encoding="UTF-8"?>
<svg id="rr" xmlns="http://www.w3.org/2000/svg" viewBox="0 0 500 500">
  <defs>
    <style>
      .cls-1 {
        fill: #ffde00;
      }
    </style>
  </defs>
  <circle class="cls-1" cx="250" cy="250" r="217.4808"/>
  <path d="m250.0002,445.5565c-107.8298,0-195.5563-87.7265-195.5563-195.5563S142.1704,54.4439,250.0002,54.4439s195.5548,87.7265,195.5548,195.5563-87.725,195.5563-195.5548,195.5563Zm0-371.0152c-96.7488,0-175.4589,78.7101-175.4589,175.4589s78.7101,175.4559,175.4589,175.4559,175.4574-78.7071,175.4574-175.4559-78.7101-175.4589-175.4574-175.4589Z"/>
  <path d="m253.9886,384.1951c-71.0384,0-105.4069-57.1939-113.6546-87.4362l25.0558-6.8749c.7805,2.7902,19.896,68.3281,88.5988,68.3281,68.5281,0,82.771-64.7589,83.3442-67.5136l25.4379,5.2843c-6.3387,30.5119-37.2327,88.2123-108.7821,88.2123Z"/>
  <path d="m225.8253,149.7509c-5.9264,0-10.9719,1.3638-15.1313,4.0905-4.163,2.7258-7.6554,6.0487-10.4772,9.9616l-1.2686-12.3738h-34.4962v98.5708h35.7649v-44.2521c0-16.9155,7.7587-25.3765,23.2796-25.3765,1.9803,0,3.9376.1471,5.8751.4117v-30.9432c-1.1086-.0564-2.2827-.089-3.5462-.089Z"/>
  <path d="m332.0018,149.7509c-5.9264,0-10.9719,1.3638-15.1313,4.0905-4.163,2.7258-7.6554,6.0487-10.4772,9.9616l-1.2686-12.3738h-34.4962v98.5708h35.7649v-44.2521c0-16.9155,7.7587-25.3765,23.2796-25.3765,1.9803,0,3.9376.1471,5.8751.4117v-30.9432c-1.1086-.0564-2.2827-.089-3.5462-.089Z"/>
</svg>