<?xml version="1.0" encoding="UTF-8"?>
<svg id="tick" xmlns="http://www.w3.org/2000/svg" viewBox="0 0 500 500">
  <defs>
    <style>
      .cls-1 {
        fill: #ffde00;
      }
    </style>
  </defs>
  <circle class="cls-1" cx="250" cy="250" r="217.4808"/>
  <path d="m249.9992,445.5565c-107.8298,0-195.5563-87.7265-195.5563-195.5563S142.1694,54.4439,249.9992,54.4439s195.5563,87.7265,195.5563,195.5563-87.7265,195.5563-195.5563,195.5563Zm0-371.0152c-96.7488,0-175.4559,78.7101-175.4559,175.4589s78.7071,175.4559,175.4559,175.4559,175.4559-78.7071,175.4559-175.4559-78.7071-175.4589-175.4559-175.4589Z"/>
  <path d="m253.9891,384.1951c-71.0384,0-105.4069-57.1939-113.6532-87.4362l25.0558-6.8749c.779,2.7902,19.896,68.3281,88.5973,68.3281,68.0438,0,82.7621-64.8004,83.3545-67.558l25.429,5.3287c-6.3417,30.5119-37.2357,88.2123-108.7836,88.2123Z"/>
  <polygon points="159.8757 186.4263 142.0806 204.2214 184.6537 246.7945 251.5543 179.894 234.4349 162.7746 185.5547 211.6548 159.8757 186.4263"/>
  <polygon points="269.3494 186.4263 251.5543 204.2214 294.1274 246.7945 361.0279 179.894 343.9086 162.7746 295.0284 211.6548 269.3494 186.4263"/>
</svg>