<?xml version="1.0" encoding="UTF-8"?>
<svg id="_" data-name="$$" xmlns="http://www.w3.org/2000/svg" viewBox="0 0 500 500">
  <defs>
    <style>
      .cls-1 {
        fill: #ffde00;
      }
    </style>
  </defs>
  <circle class="cls-1" cx="250" cy="250" r="217.4807"/>
  <path d="m249.9995,445.5565c-107.8298,0-195.5548-87.7265-195.5548-195.5563S142.1698,54.4439,249.9995,54.4439s195.5563,87.7265,195.5563,195.5563-87.7265,195.5563-195.5563,195.5563Zm0-371.0152c-96.7474,0-175.4574,78.7101-175.4574,175.4589s78.7101,175.4559,175.4574,175.4559,175.4589-78.7071,175.4589-175.4559-78.7101-175.4589-175.4589-175.4589Z"/>
  <path d="m253.9879,384.1951c-71.0369,0-105.4054-57.1939-113.6546-87.4362l25.0677-6.8364-12.5338,3.4182,12.522-3.4567c.7805,2.7902,19.8974,68.3281,88.5988,68.3281,68.0453,0,82.7606-64.8004,83.3545-67.558l25.429,5.3287c-6.3402,30.5119-37.2357,88.2123-108.7836,88.2123Z"/>
  <path d="m175.763,214.803c3.3796,3.2002,7.2198,5.5757,11.5162,7.1294,4.2963,1.5553,8.5015,2.3306,12.6139,2.3306.9121,0,1.8954-.0897,2.9482-.2744,1.0497-.1817,2.0098-.5249,2.8787-1.0281.8673-.5017,1.5769-1.1417,2.1258-1.9194.5488-.7753.8225-1.8042.8225-3.0851,0-2.1938-1.3033-3.9075-3.9083-5.1412-2.605-1.2345-5.7357-2.4898-9.3904-3.7707-3.2018-1.0969-6.4917-2.3306-9.8728-3.7019-3.3827-1.3705-6.4901-3.1299-9.3224-5.2781-2.8338-2.1466-5.1652-4.7756-6.9926-7.8839-1.8289-3.1059-2.7426-6.8998-2.7426-11.3794,0-3.9292.6385-7.4255,1.9201-10.4889,1.2785-3.0611,3.0379-5.6901,5.2781-7.8839,2.2386-2.193,4.8436-3.9756,7.8151-5.3469,2.9699-1.3713,6.1469-2.3754,9.5296-3.0163v-11.7906h16.1774v11.6538c4.1139.5481,8.0655,1.6233,11.861,3.2219,3.7908,1.6001,7.2879,3.8171,10.4881,6.6494l-12.3402,16.1782c-2.3778-2.009-5.1204-3.586-8.2263-4.73-3.1075-1.1417-6.0325-1.7137-8.7736-1.7137-1.0977,0-2.2634.0688-3.4971.2056-1.2337.1376-2.3778.4352-3.4275.8913-1.0513.4584-1.9433,1.0969-2.673,1.9194-.7328.8225-1.0977,1.9665-1.0977,3.4275,0,1.1897.3649,2.1938,1.0977,3.0163.7297.8232,1.7346,1.5769,3.0163,2.2626,1.2785.6857,2.7411,1.3265,4.3876,1.9194,1.645.596,3.3796,1.1657,5.21,1.7137,3.1059,1.0072,6.351,2.1721,9.7337,3.4963,3.3811,1.3265,6.4886,3.0402,9.324,5.1412,2.8307,2.1041,5.1621,4.754,6.991,7.9527,1.8274,3.2002,2.7426,7.1766,2.7426,11.9282,0,3.6563-.6849,6.9238-2.0562,9.8024-1.3713,2.8794-3.177,5.3948-5.4157,7.5414-2.2417,2.1482-4.8668,3.9539-7.8831,5.4149-3.0163,1.4633-6.1701,2.513-9.4616,3.1539v13.7108h-16.1774v-13.0251c-5.21-.5488-10.284-1.8042-15.2189-3.7707-4.9364-1.9642-9.324-4.8197-13.1627-8.5687l13.1627-16.8638Z"/>
  <path d="m274.573,214.803c3.3796,3.2002,7.2198,5.5757,11.5162,7.1294,4.2963,1.5553,8.5015,2.3306,12.6139,2.3306.9121,0,1.8954-.0897,2.9482-.2744,1.0497-.1817,2.0098-.5249,2.8787-1.0281.8673-.5017,1.5769-1.1417,2.1258-1.9194.5488-.7753.8225-1.8042.8225-3.0851,0-2.1938-1.3033-3.9075-3.9083-5.1412-2.605-1.2345-5.7357-2.4898-9.3904-3.7707-3.2018-1.0969-6.4917-2.3306-9.8728-3.7019-3.3827-1.3705-6.4901-3.1299-9.3224-5.2781-2.8338-2.1466-5.1652-4.7756-6.9926-7.8839-1.8289-3.1059-2.7426-6.8998-2.7426-11.3794,0-3.9292.6385-7.4255,1.9201-10.4889,1.2785-3.0611,3.0379-5.6901,5.2781-7.8839,2.2386-2.193,4.8436-3.9756,7.8151-5.3469,2.9699-1.3713,6.1469-2.3754,9.5296-3.0163v-11.7906h16.1774v11.6538c4.1139.5481,8.0655,1.6233,11.861,3.2219,3.7908,1.6001,7.2879,3.8171,10.4881,6.6494l-12.3402,16.1782c-2.3778-2.009-5.1204-3.586-8.2263-4.73-3.1075-1.1417-6.0325-1.7137-8.7736-1.7137-1.0977,0-2.2634.0688-3.4971.2056-1.2337.1376-2.3778.4352-3.4275.8913-1.0513.4584-1.9433,1.0969-2.673,1.9194-.7328.8225-1.0977,1.9665-1.0977,3.4275,0,1.1897.3649,2.1938,1.0977,3.0163.7297.8232,1.7346,1.5769,3.0163,2.2626,1.2785.6857,2.7411,1.3265,4.3876,1.9194,1.645.596,3.3796,1.1657,5.21,1.7137,3.1059,1.0072,6.351,2.1721,9.7337,3.4963,3.3811,1.3265,6.4886,3.0402,9.324,5.1412,2.8307,2.1041,5.1621,4.754,6.991,7.9527,1.8274,3.2002,2.7426,7.1766,2.7426,11.9282,0,3.6563-.6849,6.9238-2.0562,9.8024-1.3713,2.8794-3.177,5.3948-5.4157,7.5414-2.2417,2.1482-4.8668,3.9539-7.8831,5.4149-3.0163,1.4633-6.1701,2.513-9.4616,3.1539v13.7108h-16.1774v-13.0251c-5.21-.5488-10.284-1.8042-15.2189-3.7707-4.9364-1.9642-9.324-4.8197-13.1627-8.5687l13.1627-16.8638Z"/>
</svg>